# xmcd
#
# Track frame offsets:
#	150
#	20002
#	41695
#	59317
#	75819
#	91486
#	109261
#	122349
#	138779
#	154887
#	171421
#	187124
#	203572
#
# Disc length: 2913 seconds
#
# Revision: 0
# Processed by: cddbd v1.5.1PL2 Copyright (c) Steve Scherf et al.
# Submitted via: dBpowerAMP V4.0
#
DISCID=a60b5f0d
DTITLE=Rockie Lynne - Rockie Lynne
DYEAR=2006
DGENRE=Country
TTITLE0=Rockie Lynn - Lipstick
TTITLE1=Rockie Lynn - The Only Reason
TTITLE2=Rockie Lynn - More
TTITLE3=Rockie Lynn - Super Country Cowboy
TTITLE4=Rockie Lynn - That's Where Songs Come From
TTITLE5=Rockie Lynn - Do We Still
TTITLE6=Rockie Lynn - Big Time In A Small Town
TTITLE7=Rockie Lynn - Don't Make This Easy On Me
TTITLE8=Rockie Lynn - Love Me Loike You're Gonna Lose Me
TTITLE9=Rockie Lynn - Every Man's Got A Mountain
TTITLE10=Rockie Lynn - Holding Back The Ocean
TTITLE11=Rockie Lynn - Red, White And Blue
TTITLE12=Rockie Lynn - Down On Mexico
EXTD=
EXTT0=
EXTT1=
EXTT2=
EXTT3=
EXTT4=
EXTT5=
EXTT6=
EXTT7=
EXTT8=
EXTT9=
EXTT10=
EXTT11=
EXTT12=
PLAYORDER=
